<svg xmlns="http://www.w3.org/2000/svg" viewBox="0 0 1000 133"><defs><style>.cls-1{fill:#333;}.cls-2{fill:none;}.cls-3{fill:#f52;}</style></defs><title>アセット 1</title><g id="レイヤー_2" data-name="レイヤー 2"><g id="レイヤー_1-2" data-name="レイヤー 1"><path d="M199.59,56.94a4.43,4.43,0,0,0-3.34-1.5H186l3.42-27.21a4.44,4.44,0,0,0-4.42-5H171.47a4.45,4.45,0,0,0-4.41,3.89l-3.57,28.32H152.07a4.46,4.46,0,0,0-4.42,3.9l-1.5,12.15a4.46,4.46,0,0,0,4.42,5h10.31l-6.19,49.31a4.46,4.46,0,0,0,4.42,5h13.56a4.46,4.46,0,0,0,4.41-3.9l6.32-50.41h11.35a4.45,4.45,0,0,0,4.41-3.9l1.51-12.15A4.46,4.46,0,0,0,199.59,56.94Z"/><path d="M279.13,55.44H265.57a4.45,4.45,0,0,0-4.41,3.91l-.25,2a32.64,32.64,0,0,0-7.53-4.89,33.89,33.89,0,0,0-14.11-2.69c-11.5,0-21.07,4-28.47,11.93-7.23,7.86-10.9,18-10.9,30.16,0,10.66,3.25,19.5,9.66,26.29s14.84,10.28,25,10.28a33.79,33.79,0,0,0,18.3-5.64,4.41,4.41,0,0,0,1.08,2.51,4.45,4.45,0,0,0,3.34,1.51h13.56a4.46,4.46,0,0,0,4.41-3.9l8.32-66.45h0a4.44,4.44,0,0,0-4.42-5ZM257.7,91.12a22.34,22.34,0,0,1-5.88,15.54c-3.9,4.27-8.35,6.34-13.61,6.34a14.37,14.37,0,0,1-11.27-4.85c-3-3.34-4.47-7.58-4.47-13A22.94,22.94,0,0,1,228,79.44a16.92,16.92,0,0,1,13.34-6.13,15.09,15.09,0,0,1,11.75,4.89C256.2,81.49,257.7,85.72,257.7,91.12Z"/><path d="M375.82,53.75c-7.75,0-15.08,3-21.81,9a18.17,18.17,0,0,0-5.61-6.19c-2.91-2-6.8-2.92-11.88-2.92a29.08,29.08,0,0,0-16.11,4.75,4.52,4.52,0,0,0-.88-1.49,4.47,4.47,0,0,0-3.33-1.49H302.11a4.46,4.46,0,0,0-4.42,3.89l-8.31,66.46a4.44,4.44,0,0,0,4.41,5h13.57a4.45,4.45,0,0,0,4.41-3.89l4.7-37.4c.86-7,3.15-16.19,13.16-16.19,5.42,0,6.53,2.26,6.53,5.65a68.18,68.18,0,0,1-.65,7.29l-4.95,39.54a4.44,4.44,0,0,0,4.41,5h13.55a4.47,4.47,0,0,0,4.42-3.9l4.62-37.42a43.84,43.84,0,0,1,1.78-8,15.23,15.23,0,0,1,2.6-4.87,8.68,8.68,0,0,1,3.44-2.49,14.39,14.39,0,0,1,5.28-.85c4.54,0,6.31,1.71,6.31,6.1a76.45,76.45,0,0,1-.65,7.88l-4.88,38.49a4.44,4.44,0,0,0,4.41,5h13.56a4.47,4.47,0,0,0,4.42-3.9l4.63-37c.39-3.33.7-6.23.94-8.61s.35-4.31.35-5.65C399.75,65.66,395.59,53.75,375.82,53.75Z"/><path d="M487,55.44H473.46a4.45,4.45,0,0,0-4.41,3.91l-.25,2a32.64,32.64,0,0,0-7.53-4.89,33.89,33.89,0,0,0-14.11-2.69c-11.5,0-21.07,4-28.47,11.93-7.23,7.86-10.9,18-10.9,30.16,0,10.66,3.25,19.5,9.66,26.29s14.84,10.28,25,10.28a33.79,33.79,0,0,0,18.3-5.64,4.43,4.43,0,0,0,4.43,4h13.55a4.45,4.45,0,0,0,4.41-3.9l8.32-66.45h0a4.44,4.44,0,0,0-4.42-5ZM465.59,91.12a22.34,22.34,0,0,1-5.88,15.54c-3.9,4.27-8.35,6.34-13.61,6.34a14.37,14.37,0,0,1-11.27-4.85c-3-3.34-4.47-7.58-4.47-13a22.94,22.94,0,0,1,5.55-15.73,16.92,16.92,0,0,1,13.34-6.13A15.09,15.09,0,0,1,461,78.2C464.09,81.49,465.59,85.72,465.59,91.12Z"/><path d="M591.44,53.16c-11.63,0-21.39,4.05-29,12S550.9,83.26,550.9,95.1c0,11.41,3.57,20.67,10.61,27.54S578,133,589.72,133c7.31,0,13.55-1.27,18.55-3.77,4.54-2.27,9-6.09,13.16-11.36a4.44,4.44,0,0,0-1.36-6.68l-9.71-5.27a4.45,4.45,0,0,0-5.57,1.11c-3.54,4.36-8.37,6.48-14.77,6.48-4.93,0-8.83-1.36-11.92-4.15a13,13,0,0,1-4.17-7.46h50.66A4.45,4.45,0,0,0,629,97.68c.11-2.07.16-3.5.16-4.49,0-11.28-3.73-21.32-10.76-29S595.55,53.16,591.44,53.16Zm-.82,19.56c7.65,0,12.25,3.23,14.33,10.13H575.74C578.62,76,583.39,72.72,590.62,72.72Z"/><path d="M712.16,53.75a36.7,36.7,0,0,0-11.79,1.84,34.83,34.83,0,0,0-6.62,3.15l6.7-53.35a4.44,4.44,0,0,0-4.41-5H682.48a4.47,4.47,0,0,0-4.42,3.9l-15.2,121.5a4.46,4.46,0,0,0,4.42,5h13.56a4.47,4.47,0,0,0,4.42-3.88l.31-2.42a36.47,36.47,0,0,0,22.93,7.92,38,38,0,0,0,28.25-12c7.61-7.81,11.47-17.71,11.47-29.42,0-10.72-3.43-19.69-10.19-26.65S722.54,53.75,712.16,53.75Zm-18.61,54.31c-3.11-3.18-4.62-7.34-4.62-12.73,0-6.62,1.82-11.83,5.61-15.93a17.68,17.68,0,0,1,13.88-6.09c5.2,0,9.27,1.62,12.45,5s4.8,7.68,4.8,13.14a21.25,21.25,0,0,1-6,15.3,18.19,18.19,0,0,1-14.07,6.2C700.61,112.92,696.67,111.34,693.55,108.06Z"/><path d="M835.81,55.44H822.25a4.45,4.45,0,0,0-4.41,3.91l-.25,2a32.64,32.64,0,0,0-7.53-4.89A33.89,33.89,0,0,0,796,53.75c-11.5,0-21.07,4-28.47,11.93-7.23,7.86-10.9,18-10.9,30.16,0,10.66,3.25,19.5,9.66,26.29s14.84,10.28,25,10.28a33.73,33.73,0,0,0,18.29-5.64,4.49,4.49,0,0,0,1.09,2.51,4.44,4.44,0,0,0,3.34,1.51H827.5a4.45,4.45,0,0,0,4.41-3.9l8.32-66.45h0a4.44,4.44,0,0,0-4.42-5ZM814.38,91.12a22.34,22.34,0,0,1-5.88,15.54c-3.9,4.27-8.35,6.34-13.61,6.34a14.37,14.37,0,0,1-11.27-4.85c-3-3.34-4.47-7.58-4.47-13a22.94,22.94,0,0,1,5.55-15.73A16.92,16.92,0,0,1,798,73.31a15.09,15.09,0,0,1,11.75,4.89C812.88,81.49,814.38,85.72,814.38,91.12Z"/><path d="M910.75,62.21c-8-6-16.58-9.05-25.43-9.05a37.56,37.56,0,0,0-28.2,11.89c-7.45,7.81-11.22,17.64-11.22,29.24,0,11.31,3.53,20.69,10.51,27.88S872.65,133,883.75,133a51.87,51.87,0,0,0,18.51-3.71,4.41,4.41,0,0,0,2.81-3.59l1.63-12.86a4.39,4.39,0,0,0-2.1-4.35,4.49,4.49,0,0,0-4.85.13c-4.73,3.25-9.33,4.89-13.67,4.89a16.6,16.6,0,0,1-12.74-5.18c-3.29-3.5-4.89-8.12-4.89-14.11,0-6.47,1.74-11.59,5.31-15.65a16.84,16.84,0,0,1,13.29-5.85A17.79,17.79,0,0,1,896.29,75a31.05,31.05,0,0,1,6.89,6.06,4.46,4.46,0,0,0,4.65,1.31,4.39,4.39,0,0,0,3.1-3.69l1.56-12.36A4.44,4.44,0,0,0,910.75,62.21Z"/><path d="M988.46,64.15c-7.57-7.3-17.45-11-29.38-11-12.12,0-22.37,3.89-30.49,11.56s-12.24,17.42-12.24,29c0,11.32,4,20.82,11.86,28.25s17.88,11,30,11c11.67,0,21.63-3.92,29.62-11.66A38.76,38.76,0,0,0,1000,92.45C1000,80.9,996.11,71.37,988.46,64.15ZM977.38,91.63c0,6.56-1.83,11.74-5.61,15.87a17.63,17.63,0,0,1-13.82,6c-5.69,0-10.18-1.8-13.75-5.51s-5.29-8.4-5.29-14.52,1.86-11,5.67-15a19,19,0,0,1,14.34-5.81c5.61,0,10,1.68,13.38,5.15l0,0C975.73,81.24,977.38,85.73,977.38,91.63Z"/><path d="M553.15,57.66a3,3,0,0,0-2.95-3.33H538.29L541.92,25A3,3,0,0,0,539,21.63H522.43a3,3,0,0,0-2.94,2.6l-3.73,30.1H503a3,3,0,0,0-2.95,2.61l-1.86,15.35a3,3,0,0,0,2.94,3.32h12l-6.41,51.82a3,3,0,0,0,2.95,3.33h16.55a3,3,0,0,0,2.94-2.61l6.49-52.54h12.65a3,3,0,0,0,2.94-2.6Z"/><path class="cls-1" d="M4.94,79h97.67a2.55,2.55,0,0,1,2.55,2.55V121a10,10,0,0,1-10,10H12.39a10,10,0,0,1-10-10V81.54A2.55,2.55,0,0,1,4.94,79Z"/><path class="cls-2" d="M84.76,16.82a4.09,4.09,0,0,0-1.32-3.71,4.18,4.18,0,0,0-3-1.38,4.26,4.26,0,0,0-.78.07c-6.71,1.2-15.59,16.31-20,25C80.32,26.25,84.27,19.78,84.76,16.82Z"/><path class="cls-2" d="M27.81,11.76a5.62,5.62,0,0,0-.7,0,4.16,4.16,0,0,0-3,1.37,4.08,4.08,0,0,0-1.31,3.81c1.21,6.7,16.32,15.58,25,20C37.24,16.2,30.77,12.25,27.81,11.76Z"/><path class="cls-3" d="M61.56,42.33C77.89,34.52,94.38,24.26,96.33,14c.71-3.7-.5-7.13-3.58-10.21S86.08-.52,82.28.27C70.85,2.66,59.62,23.13,53.71,35.72,45.84,19.15,35.41,2.18,25,.2,21.32-.51,17.88.69,14.8,3.77s-4.34,6.67-3.54,10.47c2.33,11.13,21.85,22.08,34.49,28.1,2.55-.08,5.21-.13,8-.13S59.08,42.25,61.56,42.33ZM79.63,11.8a4.26,4.26,0,0,1,.78-.07,4.18,4.18,0,0,1,3,1.38,4.09,4.09,0,0,1,1.32,3.71c-.49,3-4.44,9.43-25.11,20C64,28.11,72.92,13,79.63,11.8ZM22.79,16.89a4.08,4.08,0,0,1,1.31-3.81,4.16,4.16,0,0,1,3-1.37,5.62,5.62,0,0,1,.7,0c3,.49,9.43,4.44,20,25.1C39.11,32.47,24,23.59,22.79,16.89Z"/><path class="cls-1" d="M101.63,48.84C95.15,46.33,82.74,43,61.56,42.33c-2.48-.08-5.07-.12-7.79-.12s-5.47,0-8,.13c-21,.69-33.38,4-39.83,6.5A9.29,9.29,0,0,0,0,57.5v12A2.55,2.55,0,0,0,2.55,72H105a2.55,2.55,0,0,0,2.55-2.55v-12A9.29,9.29,0,0,0,101.63,48.84Z"/><path class="cls-1" d="M53.77,42.21c-26,0-40.65,3.83-47.88,6.64A9.28,9.28,0,0,0,0,57.5v12A2.55,2.55,0,0,0,2.55,72H105a2.55,2.55,0,0,0,2.55-2.55v-12a9.28,9.28,0,0,0-5.89-8.65C94.43,46,79.79,42.21,53.77,42.21Z"/><path class="cls-1" d="M53.77,42.21c-26,0-40.65,3.83-47.88,6.64A9.28,9.28,0,0,0,0,57.5v12A2.55,2.55,0,0,0,2.55,72H105a2.55,2.55,0,0,0,2.55-2.55v-12a9.28,9.28,0,0,0-5.89-8.65C94.43,46,79.79,42.21,53.77,42.21Z"/></g></g></svg>