<svg xmlns="http://www.w3.org/2000/svg" viewBox="0 0 107.55 130.96"><defs><style>.cls-1{fill:#333;}.cls-2{fill:none;}.cls-3{fill:#f52;}</style></defs><title>アセット 1</title><g id="レイヤー_2" data-name="レイヤー 2"><g id="レイヤー_1-2" data-name="レイヤー 1"><path class="cls-1" d="M4.94,79h97.67a2.55,2.55,0,0,1,2.55,2.55V121a10,10,0,0,1-10,10H12.39a10,10,0,0,1-10-10V81.54A2.55,2.55,0,0,1,4.94,79Z"/><path class="cls-2" d="M84.76,16.82a4.09,4.09,0,0,0-1.32-3.71,4.18,4.18,0,0,0-3-1.38,4.26,4.26,0,0,0-.78.07c-6.71,1.2-15.59,16.31-20,25C80.32,26.25,84.27,19.78,84.76,16.82Z"/><path class="cls-2" d="M27.81,11.76a5.62,5.62,0,0,0-.7,0,4.16,4.16,0,0,0-3,1.37,4.08,4.08,0,0,0-1.31,3.81c1.21,6.7,16.32,15.58,25,20C37.24,16.2,30.77,12.25,27.81,11.76Z"/><path class="cls-3" d="M61.56,42.33C77.89,34.52,94.38,24.26,96.33,14c.71-3.7-.5-7.13-3.58-10.21S86.08-.52,82.28.27C70.85,2.66,59.62,23.13,53.71,35.72,45.84,19.15,35.41,2.18,25,.2,21.32-.51,17.88.69,14.8,3.77s-4.34,6.67-3.54,10.47c2.33,11.13,21.85,22.08,34.49,28.1,2.55-.08,5.21-.13,8-.13S59.08,42.25,61.56,42.33ZM79.63,11.8a4.26,4.26,0,0,1,.78-.07,4.18,4.18,0,0,1,3,1.38,4.09,4.09,0,0,1,1.32,3.71c-.49,3-4.44,9.43-25.11,20C64,28.11,72.92,13,79.63,11.8ZM22.79,16.89a4.08,4.08,0,0,1,1.31-3.81,4.16,4.16,0,0,1,3-1.37,5.62,5.62,0,0,1,.7,0c3,.49,9.43,4.44,20,25.1C39.11,32.47,24,23.59,22.79,16.89Z"/><path class="cls-1" d="M101.63,48.84C95.15,46.33,82.74,43,61.56,42.33c-2.48-.08-5.07-.12-7.79-.12s-5.47,0-8,.13c-21,.69-33.38,4-39.83,6.5A9.29,9.29,0,0,0,0,57.5v12A2.55,2.55,0,0,0,2.55,72H105a2.55,2.55,0,0,0,2.55-2.55v-12A9.29,9.29,0,0,0,101.63,48.84Z"/></g></g></svg>