<svg xmlns="http://www.w3.org/2000/svg" viewBox="0 0 1000 132.42"><defs><style>.cls-1{fill:#fff;}.cls-2{fill:#f52;}</style></defs><title>アセット 2</title><g id="レイヤー_2" data-name="レイヤー 2"><g id="レイヤー_1-2" data-name="レイヤー 1"><path class="cls-1" d="M196.4,56.25H185.32l3.52-28.08A3.7,3.7,0,0,0,185.16,24H171.6a3.7,3.7,0,0,0-3.68,3.24l-3.65,29H152.18a3.71,3.71,0,0,0-3.68,3.25L147,71.67a3.7,3.7,0,0,0,3.68,4.16h11.16l-6.3,50.2a3.72,3.72,0,0,0,3.68,4.18H172.8a3.72,3.72,0,0,0,3.68-3.25l6.4-51.13h12a3.71,3.71,0,0,0,3.68-3.25l1.51-12.16a3.7,3.7,0,0,0-3.68-4.17Z"/><path class="cls-1" d="M279.34,56.25H265.77a3.71,3.71,0,0,0-3.68,3.26l-.42,3.37a30,30,0,0,0-22.23-8.32c-11.28,0-20.68,3.93-27.94,11.7S200.79,84,200.79,96c0,10.47,3.18,19.16,9.46,25.81s14.53,10.06,24.47,10.06a33.63,33.63,0,0,0,19.12-6.33l-.07.52a3.72,3.72,0,0,0,3.69,4.19H271A3.71,3.71,0,0,0,274.7,127L283,60.42a3.7,3.7,0,0,0-3.68-4.17Zm-20.71,35a23.06,23.06,0,0,1-6.08,16.05c-4.05,4.44-8.68,6.59-14.17,6.59a15.1,15.1,0,0,1-11.83-5.1c-3.13-3.48-4.66-7.9-4.66-13.49a23.67,23.67,0,0,1,5.74-16.24,17.68,17.68,0,0,1,13.91-6.4,15.82,15.82,0,0,1,12.3,5.14C257.07,81.23,258.63,85.63,258.63,91.24Z"/><path class="cls-1" d="M376.09,54.56c-7.82,0-15.22,3.18-22,9.47a18.2,18.2,0,0,0-5.84-6.75c-2.79-1.89-6.55-2.8-11.48-2.8a28.37,28.37,0,0,0-16.63,5.25,3.7,3.7,0,0,0-3.7-3.48H302.33a3.71,3.71,0,0,0-3.68,3.25L290.33,126a3.72,3.72,0,0,0,3.68,4.17h13.57a3.73,3.73,0,0,0,3.69-3.25L316,89.52c1.4-11.35,5.94-16.87,13.9-16.87,6.42,0,7.29,3.24,7.29,6.4a69.23,69.23,0,0,1-.67,7.4L331.54,126a3.72,3.72,0,0,0,3.68,4.17h13.56a3.71,3.71,0,0,0,3.68-3.26l4.63-37.47a44.48,44.48,0,0,1,1.81-8.1,16,16,0,0,1,2.74-5.11,9.39,9.39,0,0,1,3.74-2.71,15.21,15.21,0,0,1,5.55-.91c4.95,0,7.06,2,7.06,6.86a75.73,75.73,0,0,1-.66,8L372.45,126a3.72,3.72,0,0,0,3.68,4.18H389.7a3.71,3.71,0,0,0,3.68-3.25l4.64-37c.38-3.34.7-6.23.94-8.61s.34-4.26.34-5.59C399.3,58.23,386.68,54.56,376.09,54.56Z"/><path class="cls-1" d="M487.38,56.25H473.82a3.72,3.72,0,0,0-3.69,3.26l-.41,3.37a30,30,0,0,0-22.23-8.32c-11.29,0-20.69,3.93-27.94,11.7S408.84,84,408.84,96c0,10.47,3.18,19.16,9.46,25.81s14.53,10.06,24.46,10.06a33.66,33.66,0,0,0,19.13-6.33l-.07.52a3.71,3.71,0,0,0,3.68,4.19h13.56a3.73,3.73,0,0,0,3.69-3.25l8.32-66.54a3.7,3.7,0,0,0-3.69-4.17Zm-20.7,35a23.11,23.11,0,0,1-6.08,16.05c-4.05,4.44-8.69,6.59-14.17,6.59a15.07,15.07,0,0,1-11.83-5.1c-3.14-3.48-4.66-7.9-4.66-13.49a23.71,23.71,0,0,1,5.73-16.24,17.68,17.68,0,0,1,13.92-6.4,15.85,15.85,0,0,1,12.3,5.14C465.11,81.23,466.68,85.63,466.68,91.24Z"/><path class="cls-1" d="M591.88,54c-11.43,0-21,4-28.51,11.82s-11.32,17.77-11.32,29.43c0,11.21,3.5,20.31,10.4,27s16.21,10.16,27.71,10.16c7.2,0,13.33-1.24,18.23-3.7,4.44-2.22,8.79-6,12.92-11.17a3.71,3.71,0,0,0-1.14-5.57l-9.71-5.27a3.7,3.7,0,0,0-4.65.92c-3.69,4.55-8.71,6.76-15.35,6.76-5.13,0-9.2-1.43-12.43-4.35a13.82,13.82,0,0,1-4.54-8.76h51.56a3.72,3.72,0,0,0,3.71-3.52c.1-2,.15-3.49.15-4.46,0-11.1-3.66-21-10.58-28.56C611.65,57.32,595.78,54,591.88,54ZM575.08,83.7c2.93-7.83,8.16-11.64,16-11.64,8.39,0,13.28,3.71,15.32,11.64Z"/><path class="cls-1" d="M712.69,54.56a35.93,35.93,0,0,0-11.57,1.8,37,37,0,0,0-7.78,3.89l6.9-54.94h0a3.72,3.72,0,0,0-3.69-4.18H683a3.72,3.72,0,0,0-3.68,3.25L664.09,126a3.72,3.72,0,0,0,3.68,4.17h13.58A3.72,3.72,0,0,0,685,127l.48-3.74a35.92,35.92,0,0,0,23.52,8.6,37.28,37.28,0,0,0,27.73-11.74c7.48-7.68,11.27-17.41,11.27-28.93,0-10.54-3.36-19.35-10-26.18S722.87,54.56,712.69,54.56Zm14.26,37a22,22,0,0,1-6.16,15.83,18.92,18.92,0,0,1-14.62,6.44c-5.25,0-9.38-1.65-12.63-5.09s-4.84-7.66-4.84-13.26c0-6.83,1.89-12.2,5.8-16.45A18.41,18.41,0,0,1,709,72.65c5.41,0,9.66,1.71,13,5.22S727,85.87,727,91.53Z"/><path class="cls-1" d="M836.43,56.25H822.86a3.71,3.71,0,0,0-3.68,3.26l-.41,3.37a33.52,33.52,0,0,0-8.42-5.69,33.13,33.13,0,0,0-13.81-2.63c-11.29,0-20.69,3.93-27.95,11.7C761.49,74,757.89,84,757.89,96c0,10.47,3.18,19.16,9.45,25.81s14.54,10.06,24.47,10.06a33.66,33.66,0,0,0,19.13-6.33l-.07.52a3.71,3.71,0,0,0,3.68,4.19h13.56a3.71,3.71,0,0,0,3.68-3.25l8.32-66.54h0a3.67,3.67,0,0,0-.9-2.92A3.73,3.73,0,0,0,836.43,56.25Zm-20.7,35a23.11,23.11,0,0,1-6.08,16.05c-4,4.44-8.69,6.59-14.17,6.59a15.07,15.07,0,0,1-11.83-5.1c-3.14-3.48-4.67-7.9-4.67-13.49a23.67,23.67,0,0,1,5.74-16.24,17.68,17.68,0,0,1,13.91-6.4,15.82,15.82,0,0,1,12.3,5.14C814.16,81.23,815.73,85.63,815.73,91.24Z"/><path class="cls-1" d="M911,62.88C903.08,57,894.67,54,886,54a36.87,36.87,0,0,0-27.69,11.67c-7.31,7.67-11,17.35-11,28.76,0,11.13,3.46,20.35,10.3,27.4s15.93,10.62,26.84,10.62a51.12,51.12,0,0,0,18.25-3.66,3.7,3.7,0,0,0,2.35-3l1.62-12.87a3.66,3.66,0,0,0-1.74-3.63,3.74,3.74,0,0,0-4,.11c-4.86,3.33-9.61,5-14.1,5-5.5,0-9.85-1.77-13.29-5.41s-5.1-8.44-5.1-14.65c0-6.66,1.81-12,5.5-16.16a17.58,17.58,0,0,1,13.86-6.11,18.48,18.48,0,0,1,9.63,2.41,31.63,31.63,0,0,1,7.06,6.21,3.69,3.69,0,0,0,3.89,1.09,3.64,3.64,0,0,0,2.58-3.07l1.56-12.39A3.7,3.7,0,0,0,911,62.88Z"/><path class="cls-1" d="M988.68,64.76C981.25,57.6,971.53,54,959.79,54c-11.93,0-22,3.82-30,11.37s-12,17.12-12,28.47c0,11.12,3.91,20.46,11.63,27.75S947,132.42,959,132.42c11.48,0,21.28-3.86,29.12-11.46A38.11,38.11,0,0,0,1000,92.56C1000,81.21,996.19,71.85,988.68,64.76Zm-9.84,27c0,6.75-1.89,12.11-5.8,16.38a18.33,18.33,0,0,1-14.38,6.26c-5.91,0-10.58-1.87-14.29-5.74s-5.51-8.72-5.51-15.05,1.93-11.37,5.89-15.49a19.69,19.69,0,0,1,14.88-6c5.83,0,10.38,1.76,14,5.41C977.12,81,978.84,85.63,978.84,91.75Z"/><path class="cls-1" d="M552.28,55.89a2.25,2.25,0,0,0-1.67-.75H537.85l3.73-30.24a2.19,2.19,0,0,0-.54-1.75,2.21,2.21,0,0,0-1.67-.75H522.82a2.22,2.22,0,0,0-2.21,2L516.8,55.14H503.4a2.23,2.23,0,0,0-2.21,2l-1.87,15.37a2.26,2.26,0,0,0,.55,1.74,2.21,2.21,0,0,0,1.67.75h12.84l-6.52,52.71a2.24,2.24,0,0,0,.55,1.75,2.21,2.21,0,0,0,1.66.75h16.57a2.22,2.22,0,0,0,2.21-1.95L535.42,75h13.31a2.22,2.22,0,0,0,2.21-2l1.88-15.36A2.24,2.24,0,0,0,552.28,55.89Z"/><path class="cls-2" d="M92.82,3.82C89.67.67,86.15-.52,82.34.27,70.9,2.67,59.67,23.16,53.75,35.76,45.88,19.17,35.44,2.18,25,.2c-3.7-.71-7.14.49-10.22,3.58s-4.35,6.67-3.55,10.47C13.88,26.73,38,39,50,44.33c-.17.42-.3.75-.39,1a1.23,1.23,0,0,0-.17.49,1.23,1.23,0,0,0,1.22,1.47l.25,0a1.5,1.5,0,0,0,.43-.18l1.27-.56L53.76,46l2.53,1a1.09,1.09,0,0,0,.48.17,1,1,0,0,0,.24,0,1.21,1.21,0,0,0,.87-.37,1.24,1.24,0,0,0,.34-1.13,1.3,1.3,0,0,0-.18-.42c-.08-.16-.25-.57-.45-1,17.55-8,36.7-19.13,38.81-30.21C97.11,10.35,95.9,6.9,92.82,3.82ZM59.7,36.88C64.09,28.15,73,13,79.69,11.81a5.14,5.14,0,0,1,.78-.07,4.21,4.21,0,0,1,3,1.38,4.09,4.09,0,0,1,1.32,3.72C84.33,19.8,80.38,26.28,59.7,36.88ZM24.12,13.1a4.13,4.13,0,0,1,3-1.38,4.23,4.23,0,0,1,.7.06c3,.48,9.44,4.44,20,25.12-8.73-4.39-23.86-13.28-25.06-20A4.08,4.08,0,0,1,24.12,13.1Z"/><path class="cls-1" d="M4.94,79.08h97.74a2.55,2.55,0,0,1,2.55,2.55v39.48a10,10,0,0,1-10,10H12.39a10,10,0,0,1-10-10V81.63A2.55,2.55,0,0,1,4.94,79.08Z"/><path class="cls-1" d="M53.81,42.26c-26,0-40.64,3.83-47.89,6.64A9.3,9.3,0,0,0,0,57.57v12a2.55,2.55,0,0,0,2.55,2.55H105.07a2.56,2.56,0,0,0,2.56-2.55v-12a9.29,9.29,0,0,0-5.93-8.67C94.46,46.09,79.82,42.26,53.81,42.26Z"/></g></g></svg>