<svg xmlns="http://www.w3.org/2000/svg" viewBox="0 0 2143.02 1217.09"><defs><style>.cls-1{fill:#3a3a3a;}</style></defs><title>アセット 7</title><g id="レイヤー_2" data-name="レイヤー 2"><g id="レイヤー_1-2" data-name="レイヤー 1"><path class="cls-1" d="M859.58,590.51a7.5,7.5,0,0,0-2-.45L417.25,552.59,13.94,518.27a7.25,7.25,0,0,0-2.06.1,7.42,7.42,0,0,0,2,.45L417.2,553.14l440.32,37.47A7.25,7.25,0,0,0,859.58,590.51Z"/><path class="cls-1" d="M2131.14,698.73a7.49,7.49,0,0,0-2-.46L1688.81,660.8,1285.5,626.48a7.64,7.64,0,0,0-2.06.1,7.07,7.07,0,0,0,2,.45l403.31,34.33,440.32,37.47A7.64,7.64,0,0,0,2131.14,698.73Z"/><path class="cls-1" d="M864.87,597.17a7.7,7.7,0,0,0-2-.39L433.57,573.15,40.37,551.51a7.23,7.23,0,0,0-2.07.16,7.39,7.39,0,0,0,2,.39l393.2,21.65,429.27,23.63A7.52,7.52,0,0,0,864.87,597.17Z"/><path class="cls-1" d="M2104.71,665.42a7.7,7.7,0,0,0-2-.39L1673.41,641.4l-393.2-21.64a7.53,7.53,0,0,0-2.06.16,7.32,7.32,0,0,0,2,.39L1673.38,642l429.27,23.63A7.52,7.52,0,0,0,2104.71,665.42Z"/><path class="cls-1" d="M891.21,620.36a7.56,7.56,0,0,0-2.06-.14L514.91,644.74,172.06,667.2a7.69,7.69,0,0,0-2,.41,7.55,7.55,0,0,0,2.06.15L515,645.29l374.24-24.52A7.61,7.61,0,0,0,891.21,620.36Z"/><path class="cls-1" d="M1973,549.48a7.56,7.56,0,0,0-2.06-.14l-374.24,24.52-342.86,22.46a7.69,7.69,0,0,0-2,.41,7.65,7.65,0,0,0,2.07.15l342.85-22.47L1971,549.89A7.69,7.69,0,0,0,1973,549.48Z"/><path class="cls-1" d="M866.71,563.45a7.9,7.9,0,0,0-1.94-.71L439.28,469.05,49.55,383.24a7.45,7.45,0,0,0-2.06-.17,7.51,7.51,0,0,0,1.94.71L439.16,469.6l425.49,93.68A7.45,7.45,0,0,0,866.71,563.45Z"/><path class="cls-1" d="M2095.52,834a7.61,7.61,0,0,0-1.94-.71L1668.1,739.63l-389.73-85.82a7.45,7.45,0,0,0-2.06-.17,7.16,7.16,0,0,0,1.94.71L1668,740.17l425.48,93.68A7.5,7.5,0,0,0,2095.52,834Z"/><path class="cls-1" d="M899.9,578.75a7.35,7.35,0,0,0-2-.63L541.82,516.28,215.54,459.62a7.65,7.65,0,0,0-2.06-.08,7.35,7.35,0,0,0,2,.63l326.27,56.66,356.12,61.84A7.65,7.65,0,0,0,899.9,578.75Z"/><path class="cls-1" d="M1929.54,757.55a7.35,7.35,0,0,0-2-.62l-356.12-61.85-326.27-56.66a7.24,7.24,0,0,0-2.06-.07,7.72,7.72,0,0,0,2,.62l326.27,56.66,356.11,61.84A7.73,7.73,0,0,0,1929.54,757.55Z"/><path class="cls-1" d="M921.65,566a7.52,7.52,0,0,0-1.9-.83L609,477,324.24,396.18a7.34,7.34,0,0,0-2.05-.29,7.51,7.51,0,0,0,1.9.82l284.75,80.82L919.6,565.72A7.7,7.7,0,0,0,921.65,566Z"/><path class="cls-1" d="M1820.83,821.21a7.52,7.52,0,0,0-1.9-.83l-310.75-88.19-284.76-80.82a7.29,7.29,0,0,0-2.05-.29,7.51,7.51,0,0,0,1.9.82L1508,732.72l310.75,88.19A7.7,7.7,0,0,0,1820.83,821.21Z"/><path class="cls-1" d="M881.85,557.57a7.15,7.15,0,0,0-1.9-.8L486.07,450.9l-360.8-97a7.66,7.66,0,0,0-2-.27,7.08,7.08,0,0,0,1.91.8l360.8,97L879.8,557.3A7.71,7.71,0,0,0,881.85,557.57Z"/><path class="cls-1" d="M2019.8,863.44a7.57,7.57,0,0,0-1.91-.8L1624,756.77l-360.8-97a7.29,7.29,0,0,0-2-.26,7.87,7.87,0,0,0,1.9.8l360.81,97,393.87,105.87A7.58,7.58,0,0,0,2019.8,863.44Z"/><path class="cls-1" d="M927.94,570.67a7.07,7.07,0,0,0-1.91-.79L628.45,491.36,355.74,419.41a7.29,7.29,0,0,0-2.05-.26,7.41,7.41,0,0,0,1.91.79l272.71,72,297.58,78.51A7.29,7.29,0,0,0,927.94,570.67Z"/><path class="cls-1" d="M1789.33,797.94a7.56,7.56,0,0,0-1.91-.79l-297.58-78.51-272.72-72a7.55,7.55,0,0,0-2-.25,7.72,7.72,0,0,0,1.91.79l272.72,71.95,297.58,78.52A7.6,7.6,0,0,0,1789.33,797.94Z"/><path class="cls-1" d="M908.9,564.66a7.87,7.87,0,0,0-1.9-.8l-337.37-91L260.53,389.4a7.66,7.66,0,0,0-2-.27,7.42,7.42,0,0,0,1.91.81l309.1,83.41,337.36,91A7.29,7.29,0,0,0,908.9,564.66Z"/><path class="cls-1" d="M1884.54,828a7.22,7.22,0,0,0-1.91-.8l-337.36-91L1236.16,652.7a7.23,7.23,0,0,0-2.05-.27,7.73,7.73,0,0,0,1.91.8l309.1,83.42,337.37,91A7.23,7.23,0,0,0,1884.54,828Z"/><path class="cls-1" d="M876.23,576.28a7,7,0,0,0-2-.61l-405.56-67L97.2,447.25a7.69,7.69,0,0,0-2.07-.06,7.42,7.42,0,0,0,2,.61l371.5,61.39,405.56,67A8,8,0,0,0,876.23,576.28Z"/><path class="cls-1" d="M2047.89,769.9a7.54,7.54,0,0,0-2-.6l-405.55-67-371.51-61.39a7.28,7.28,0,0,0-2.07-.06,7.93,7.93,0,0,0,2,.61l371.5,61.39,405.56,67A7.29,7.29,0,0,0,2047.89,769.9Z"/><path class="cls-1" d="M925.48,593a7.4,7.4,0,0,0-2-.49L620.79,560.19,343.41,530.61a7.43,7.43,0,0,0-2.07,0,7.4,7.4,0,0,0,2,.5l277.38,29.58L923.41,593A7.42,7.42,0,0,0,925.48,593Z"/><path class="cls-1" d="M1801.68,686.43a7.4,7.4,0,0,0-2-.49L1497,653.65l-277.38-29.59a7.82,7.82,0,0,0-2.07.06,7.4,7.4,0,0,0,2,.5l277.38,29.58,302.68,32.29A7.82,7.82,0,0,0,1801.68,686.43Z"/><path class="cls-1" d="M920.31,535.28a7.45,7.45,0,0,0-1.72-1.14l-313.68-152L317.5,242.87a7.76,7.76,0,0,0-2-.65,7.69,7.69,0,0,0,1.72,1.15L604.67,382.64l313.68,152A7.46,7.46,0,0,0,920.31,535.28Z"/><path class="cls-1" d="M1827.48,974.87a7.35,7.35,0,0,0-1.72-1.14l-313.68-152L1224.67,682.46a7.45,7.45,0,0,0-2-.65,7.42,7.42,0,0,0,1.73,1.14l287.4,139.27,313.69,152A7.59,7.59,0,0,0,1827.48,974.87Z"/><path class="cls-1" d="M945.15,551.41a7.6,7.6,0,0,0-1.75-1.1L681.63,432,441.71,323.46a7.37,7.37,0,0,0-2-.59,7.69,7.69,0,0,0,1.75,1.1L681.4,432.45,943.17,550.82A7.37,7.37,0,0,0,945.15,551.41Z"/><path class="cls-1" d="M1703.29,894.22a7.67,7.67,0,0,0-1.75-1.09L1439.77,774.76,1199.85,666.27a7.7,7.7,0,0,0-2-.59,7.55,7.55,0,0,0,1.76,1.1l239.92,108.49,261.77,118.36A7.26,7.26,0,0,0,1703.29,894.22Z"/><path class="cls-1" d="M868.18,565.11a7.51,7.51,0,0,0-1.94-.7l-422.4-90.24L56.94,391.51a7.08,7.08,0,0,0-2.06-.16,7.45,7.45,0,0,0,1.95.7l386.9,82.66L866.12,565A7.88,7.88,0,0,0,868.18,565.11Z"/><path class="cls-1" d="M2088.14,825.75a7.23,7.23,0,0,0-1.95-.7L1663.8,734.8l-386.9-82.66a7.49,7.49,0,0,0-2.07-.15,8,8,0,0,0,2,.7l386.9,82.66,422.4,90.24A7.82,7.82,0,0,0,2088.14,825.75Z"/><path class="cls-1" d="M910.72,551a7.33,7.33,0,0,0-1.83-1L575.27,430.54,269.6,321.08a7.11,7.11,0,0,0-2-.43,7.67,7.67,0,0,0,1.83,1L575.08,431.06,908.7,550.54A7.87,7.87,0,0,0,910.72,551Z"/><path class="cls-1" d="M1875.44,896.45a7.69,7.69,0,0,0-1.83-1L1540,776,1234.32,666.56a7.18,7.18,0,0,0-2-.43,7.67,7.67,0,0,0,1.83,1L1539.8,776.54,1873.42,896A7.87,7.87,0,0,0,1875.44,896.45Z"/><path class="cls-1" d="M936.28,519.64a7.51,7.51,0,0,0-1.56-1.36L654.23,333.87l-257-169a7.55,7.55,0,0,0-1.87-.89,7.48,7.48,0,0,0,1.56,1.35l257,169L934.41,518.74A7.77,7.77,0,0,0,936.28,519.64Z"/><path class="cls-1" d="M1747.66,1053.1a7.26,7.26,0,0,0-1.56-1.36L1465.61,867.33l-257-169a7.49,7.49,0,0,0-1.86-.89,7.48,7.48,0,0,0,1.56,1.35l257,169L1745.8,1052.2A7.54,7.54,0,0,0,1747.66,1053.1Z"/><path class="cls-1" d="M954.36,547a7.52,7.52,0,0,0-1.68-1.2L710.07,418.24,487.7,301.35a7.78,7.78,0,0,0-1.94-.71,7.37,7.37,0,0,0,1.69,1.2L709.82,418.73l242.6,127.53A7.78,7.78,0,0,0,954.36,547Z"/><path class="cls-1" d="M1657.26,916.45a7.37,7.37,0,0,0-1.69-1.2L1413,787.73,1190.6,670.84a7.18,7.18,0,0,0-1.94-.71,7.52,7.52,0,0,0,1.68,1.2l222.37,116.89,242.6,127.52A7.12,7.12,0,0,0,1657.26,916.45Z"/><path class="cls-1" d="M931.54,524.74a7.65,7.65,0,0,0-1.61-1.29L639.61,349.62l-266-159.28a7.64,7.64,0,0,0-1.9-.81,7.35,7.35,0,0,0,1.61,1.29l266,159.28L929.64,523.93A7.64,7.64,0,0,0,931.54,524.74Z"/><path class="cls-1" d="M1771.33,1027.56a8,8,0,0,0-1.61-1.29L1479.39,852.44l-266-159.28a7.34,7.34,0,0,0-1.9-.81,7.42,7.42,0,0,0,1.62,1.29l266,159.28,290.32,173.83A7.64,7.64,0,0,0,1771.33,1027.56Z"/><path class="cls-1" d="M989,547.23a7.82,7.82,0,0,0-1.48-1.44L816.93,419.14,660.52,303a7.38,7.38,0,0,0-1.81-1,7.82,7.82,0,0,0,1.48,1.44L816.6,419.58,987.14,546.24A7.56,7.56,0,0,0,989,547.23Z"/><path class="cls-1" d="M1484.3,915.11a7.3,7.3,0,0,0-1.48-1.45L1312.28,787l-156.4-116.15a7.28,7.28,0,0,0-1.81-1,7.26,7.26,0,0,0,1.48,1.44L1312,787.46l170.54,126.65A7.81,7.81,0,0,0,1484.3,915.11Z"/><path class="cls-1" d="M907.05,524.23a7.54,7.54,0,0,0-1.69-1.18L564,348,251.18,187.65a7.5,7.5,0,0,0-2-.69,7.39,7.39,0,0,0,1.7,1.18L563.7,348.5l341.4,175A7.5,7.5,0,0,0,907.05,524.23Z"/><path class="cls-1" d="M1893.79,1030.13a7.72,7.72,0,0,0-1.7-1.18l-341.41-175L1237.91,693.55a7.82,7.82,0,0,0-1.94-.69,7.34,7.34,0,0,0,1.69,1.19L1550.43,854.4l341.41,175.05A7.33,7.33,0,0,0,1893.79,1030.13Z"/><path class="cls-1" d="M966.63,512.38a7.28,7.28,0,0,0-1.32-1.59L748,311.53,548.83,128.91a7.57,7.57,0,0,0-1.7-1.18,7.28,7.28,0,0,0,1.32,1.59L747.62,311.94,964.94,511.2A7.31,7.31,0,0,0,966.63,512.38Z"/><path class="cls-1" d="M1595.89,1089.37a7.9,7.9,0,0,0-1.32-1.59L1377.25,888.51,1178.08,705.89a7.63,7.63,0,0,0-1.69-1.18,7.28,7.28,0,0,0,1.32,1.59l199.17,182.62,217.31,199.27A7.68,7.68,0,0,0,1595.89,1089.37Z"/><path class="cls-1" d="M980,505.11a7.38,7.38,0,0,0-1.15-1.72L789.4,289.1,615.72,92.69a7.43,7.43,0,0,0-1.57-1.35,7.59,7.59,0,0,0,1.15,1.72L789,289.46,978.47,503.75A7.5,7.5,0,0,0,980,505.11Z"/><path class="cls-1" d="M1528.87,1125.76a7.38,7.38,0,0,0-1.15-1.72l-189.5-214.29L1164.55,713.34A7.39,7.39,0,0,0,1163,712a7.59,7.59,0,0,0,1.15,1.72l173.68,196.4L1527.3,1124.4A7.5,7.5,0,0,0,1528.87,1125.76Z"/><path class="cls-1" d="M993.49,531.05a7.66,7.66,0,0,0-1.26-1.64L830.94,369.21,683,222.32a7.36,7.36,0,0,0-1.64-1.25,7.36,7.36,0,0,0,1.25,1.64l147.9,146.9,161.29,160.2A7.58,7.58,0,0,0,993.49,531.05Z"/><path class="cls-1" d="M1461.62,996a7.13,7.13,0,0,0-1.26-1.64l-161.28-160.2-147.9-146.89a7.64,7.64,0,0,0-1.65-1.25,7.42,7.42,0,0,0,1.26,1.64l147.9,146.9L1460,994.77A7.64,7.64,0,0,0,1461.62,996Z"/><path class="cls-1" d="M918.41,519a7.43,7.43,0,0,0-1.63-1.27L599,331.85,307.92,161.56a7.11,7.11,0,0,0-1.91-.79,7.67,7.67,0,0,0,1.63,1.27L598.75,332.33,916.5,518.2A8,8,0,0,0,918.41,519Z"/><path class="cls-1" d="M1837,1056.33a8,8,0,0,0-1.63-1.28L1517.63,869.19,1226.52,698.9a7.65,7.65,0,0,0-1.91-.8,7.23,7.23,0,0,0,1.63,1.28l291.11,170.28,317.75,185.87A7.49,7.49,0,0,0,1837,1056.33Z"/><path class="cls-1" d="M988.85,514a7.93,7.93,0,0,0-1.14-1.73L816.6,316.41,659.75,136.91a7.71,7.71,0,0,0-1.56-1.36,7.54,7.54,0,0,0,1.14,1.72L816.18,316.78,987.29,512.59A7.21,7.21,0,0,0,988.85,514Z"/><path class="cls-1" d="M1484.83,1081.54a7.54,7.54,0,0,0-1.14-1.72L1312.58,884s-130.74-149.63-156.85-179.5a7.46,7.46,0,0,0-1.56-1.36,7.54,7.54,0,0,0,1.14,1.72l156.85,179.5,171.11,195.81A7.21,7.21,0,0,0,1484.83,1081.54Z"/><path class="cls-1" d="M973.36,537.81a7.59,7.59,0,0,0-1.5-1.42L768.77,390,582.58,255.84a7.18,7.18,0,0,0-1.82-1,7.32,7.32,0,0,0,1.5,1.42L768.45,390.47,971.53,536.84A7.75,7.75,0,0,0,973.36,537.81Z"/><path class="cls-1" d="M1562.26,962.23a7.32,7.32,0,0,0-1.5-1.42L1357.67,814.44,1171.48,680.26a7.56,7.56,0,0,0-1.82-1,7.64,7.64,0,0,0,1.5,1.43l186.19,134.18,203.09,146.37A7.51,7.51,0,0,0,1562.26,962.23Z"/><path class="cls-1" d="M990.22,520a7.15,7.15,0,0,0-1.18-1.7L820.86,335.15,666.67,167.22a7.05,7.05,0,0,0-1.59-1.32,7.63,7.63,0,0,0,1.18,1.69L820.45,335.52,988.63,518.7A7.9,7.9,0,0,0,990.22,520Z"/><path class="cls-1" d="M1477.93,1051.2a7.15,7.15,0,0,0-1.18-1.7L1308.57,866.33,1154.38,698.4a7.05,7.05,0,0,0-1.59-1.32,7.69,7.69,0,0,0,1.19,1.69L1308.16,866.7l168.19,183.18A7.59,7.59,0,0,0,1477.93,1051.2Z"/><path class="cls-1" d="M1045.33,525.91a7.37,7.37,0,0,0-.36-2c-9-28.36-54-170.35-54-170.35L941.49,197.24a7.72,7.72,0,0,0-.89-1.87,7.5,7.5,0,0,0,.36,2L990.48,353.7l54,170.34A7.55,7.55,0,0,0,1045.33,525.91Z"/><path class="cls-1" d="M1202.42,1021.72a7.77,7.77,0,0,0-.36-2c-9-28.36-54-170.35-54-170.35s-41.27-130.28-49.52-156.29a7.71,7.71,0,0,0-.88-1.87,7.87,7.87,0,0,0,.35,2c8.25,26,49.52,156.29,49.52,156.29l54,170.34A7.21,7.21,0,0,0,1202.42,1021.72Z"/><path class="cls-1" d="M988.66,539.68a7.27,7.27,0,0,0-1.4-1.52L816,395.84,659,265.33a7.67,7.67,0,0,0-1.75-1.1,7.24,7.24,0,0,0,1.39,1.52l157,130.52L986.91,538.59A7.61,7.61,0,0,0,988.66,539.68Z"/><path class="cls-1" d="M1485.74,952.86a7.27,7.27,0,0,0-1.4-1.52L1313.12,809l-157-130.51a7.34,7.34,0,0,0-1.75-1.1,7.49,7.49,0,0,0,1.39,1.52l157,130.51L1484,951.77A7.61,7.61,0,0,0,1485.74,952.86Z"/><path class="cls-1" d="M1010.27,500.53a7.41,7.41,0,0,0-.77-1.92L882.75,275,766.55,70.09a7.44,7.44,0,0,0-1.25-1.65,7.41,7.41,0,0,0,.77,1.92l116.19,205L1009,498.88A7.44,7.44,0,0,0,1010.27,500.53Z"/><path class="cls-1" d="M1377.72,1148.65a7.41,7.41,0,0,0-.77-1.92L1250.2,923.16,1134,718.21a7.15,7.15,0,0,0-1.25-1.64,7.7,7.7,0,0,0,.77,1.92l116.2,205L1376.47,1147A7.22,7.22,0,0,0,1377.72,1148.65Z"/><path class="cls-1" d="M1013.07,531.52a7.33,7.33,0,0,0-1-1.8l-120.62-159L780.78,224.89a7.53,7.53,0,0,0-1.46-1.47,7.48,7.48,0,0,0,1,1.8L891,371.06l120.63,159A7.75,7.75,0,0,0,1013.07,531.52Z"/><path class="cls-1" d="M1363.7,993.67a7.67,7.67,0,0,0-1-1.8l-120.63-159L1131.41,687a7.53,7.53,0,0,0-1.46-1.47,7.43,7.43,0,0,0,1,1.8l110.65,145.84,120.63,159A7.47,7.47,0,0,0,1363.7,993.67Z"/><path class="cls-1" d="M1005.93,494a7.61,7.61,0,0,0-.78-1.92c-22.61-39.49-135.81-237.29-135.81-237.29L744.85,37.25a7.47,7.47,0,0,0-1.26-1.64,7.55,7.55,0,0,0,.78,1.91L868.85,255s113.21,197.8,135.82,237.29A7.18,7.18,0,0,0,1005.93,494Z"/><path class="cls-1" d="M1399.43,1181.49a7.46,7.46,0,0,0-.78-1.92L1262.84,942.28,1138.35,724.77a8,8,0,0,0-1.26-1.64,7.46,7.46,0,0,0,.78,1.92l124.49,217.5,135.81,237.3A7.72,7.72,0,0,0,1399.43,1181.49Z"/><path class="cls-1" d="M1003.66,509.54a7.64,7.64,0,0,0-.93-1.85L862.34,302.83,733.63,115a7.66,7.66,0,0,0-1.38-1.53,7.59,7.59,0,0,0,.92,1.85C754.6,146.6,861.88,303.15,861.88,303.15S978.9,473.91,1002.27,508A7.77,7.77,0,0,0,1003.66,509.54Z"/><path class="cls-1" d="M1410.77,1103.6a7.08,7.08,0,0,0-.93-1.84c-23.36-34.1-140.39-204.86-140.39-204.86l-128.7-187.81a7.69,7.69,0,0,0-1.39-1.53,7.41,7.41,0,0,0,.93,1.84L1269,897.21l140.39,204.86A7.37,7.37,0,0,0,1410.77,1103.6Z"/><path class="cls-1" d="M1064.57,486.84a8,8,0,0,0,.16-2.06c-2.4-41.92-14.37-251.86-14.37-251.86S1039.38,40.46,1037.19,2a7.69,7.69,0,0,0-.4-2,8,8,0,0,0-.16,2.06C1038.83,40.49,1049.8,233,1049.8,233s12,209.94,14.37,251.86A7.69,7.69,0,0,0,1064.57,486.84Z"/><path class="cls-1" d="M1106.22,1217.09a7.16,7.16,0,0,0,.16-2.06L1092,963.18s-11-192.47-13.17-230.89a7.61,7.61,0,0,0-.4-2,8,8,0,0,0-.16,2.06c2.19,38.43,13.17,230.89,13.17,230.89s12,209.94,14.37,251.85A7.62,7.62,0,0,0,1106.22,1217.09Z"/><path class="cls-1" d="M1045,524.24a7.47,7.47,0,0,0-.35-2C1035.56,493.27,990,348.37,990,348.37s-41.8-132.94-50.14-159.48A7.54,7.54,0,0,0,939,187a7.11,7.11,0,0,0,.35,2c8.34,26.54,50.14,159.48,50.14,159.48s45.56,144.9,54.65,173.83A7.71,7.71,0,0,0,1045,524.24Z"/><path class="cls-1" d="M1204,1030.08a7.34,7.34,0,0,0-.35-2C1194.6,999.11,1149,854.21,1149,854.21l-50.15-159.49a7.7,7.7,0,0,0-.87-1.87,7,7,0,0,0,.35,2c8.34,26.54,50.14,159.49,50.14,159.49s45.56,144.89,54.65,173.83A7.71,7.71,0,0,0,1204,1030.08Z"/><path class="cls-1" d="M1060.39,521a7.52,7.52,0,0,0,0-2.07c-3.81-30-22.93-180.46-22.93-180.46l-21-165.57a7.58,7.58,0,0,0-.54-2,7.52,7.52,0,0,0,0,2.07l21,165.57S1056,489,1059.85,519A7.22,7.22,0,0,0,1060.39,521Z"/><path class="cls-1" d="M1127.13,1046.17a7.44,7.44,0,0,0,0-2.06c-3.81-30-22.93-180.47-22.93-180.47s-17.54-138-21-165.57a7.69,7.69,0,0,0-.54-2,7.52,7.52,0,0,0,0,2.07c3.5,27.56,21,165.57,21,165.57s19.11,150.43,22.93,180.47A7.24,7.24,0,0,0,1127.13,1046.17Z"/><path class="cls-1" d="M1088.75,514.45a7.4,7.4,0,0,0,.65-2c5.92-32.33,35.59-194.22,35.59-194.22s27.22-148.49,32.65-178.14a7.78,7.78,0,0,0,.1-2.07,7.35,7.35,0,0,0-.65,2c-5.43,29.65-32.65,178.14-32.65,178.14s-29.67,161.89-35.59,194.21A7.78,7.78,0,0,0,1088.75,514.45Z"/><path class="cls-1" d="M985.28,1079a6.94,6.94,0,0,0,.64-2c5.93-32.33,35.6-194.21,35.6-194.21s27.21-148.5,32.65-178.15a7.35,7.35,0,0,0,.09-2.07,7.72,7.72,0,0,0-.64,2c-5.43,29.65-32.65,178.15-32.65,178.15S991.3,1044.64,985.38,1077A7.71,7.71,0,0,0,985.28,1079Z"/><path class="cls-1" d="M1106,494.53a7.25,7.25,0,0,0,.86-1.88l71.36-235.88,65.43-216.26a7.8,7.8,0,0,0,.33-2,7.25,7.25,0,0,0-.86,1.88l-65.43,216.26-71.36,235.88A7.8,7.8,0,0,0,1106,494.53Z"/><path class="cls-1" d="M899,1178.63a7.4,7.4,0,0,0,.86-1.88c11.88-39.26,71.36-235.89,71.36-235.89l65.43-216.26a7.67,7.67,0,0,0,.33-2,7.4,7.4,0,0,0-.86,1.88L970.73,940.7s-59.48,196.63-71.36,235.89A7.73,7.73,0,0,0,899,1178.63Z"/><path class="cls-1" d="M1094.37,501.44a7.9,7.9,0,0,0,.7-1.94c7.86-36.85,47.25-221.4,47.25-221.4l43.32-203a7.52,7.52,0,0,0,.16-2.07,7.59,7.59,0,0,0-.7,2l-43.33,203s-39.38,184.55-47.25,221.4A7.45,7.45,0,0,0,1094.37,501.44Z"/><path class="cls-1" d="M957.22,1144.07a7.83,7.83,0,0,0,.7-2c7.86-36.84,47.25-221.39,47.25-221.39l43.32-203a7.06,7.06,0,0,0,.16-2.06,7.45,7.45,0,0,0-.7,2l-43.33,203s-39.38,184.55-47.25,221.4A7.42,7.42,0,0,0,957.22,1144.07Z"/><path class="cls-1" d="M1093.34,519.43a7.33,7.33,0,0,0,.75-1.93c7.5-30.6,45-183.85,45-183.85s34.44-140.59,41.31-168.66a7.55,7.55,0,0,0,.22-2.05,7.62,7.62,0,0,0-.76,1.92c-6.87,28.07-41.31,168.66-41.31,168.66s-37.53,153.25-45,183.85A7.55,7.55,0,0,0,1093.34,519.43Z"/><path class="cls-1" d="M962.37,1054.16a7.69,7.69,0,0,0,.76-1.93c7.49-30.6,45-183.85,45-183.85s34.44-140.58,41.31-168.66a7.51,7.51,0,0,0,.22-2.05,7.77,7.77,0,0,0-.76,1.92c-6.87,28.07-41.3,168.66-41.3,168.66s-37.54,153.25-45,183.85A7.58,7.58,0,0,0,962.37,1054.16Z"/><path class="cls-1" d="M1060,507.71a7.43,7.43,0,0,0,0-2.07l-23.85-208.27-21.86-191a8.24,8.24,0,0,0-.51-2,7.43,7.43,0,0,0,0,2.07l21.87,191,23.85,208.27A7.78,7.78,0,0,0,1060,507.71Z"/><path class="cls-1" d="M1129.23,1112.74a7,7,0,0,0,0-2.06c-4-34.67-23.84-208.28-23.84-208.28l-21.87-191a7.23,7.23,0,0,0-.51-2,7.78,7.78,0,0,0,0,2.06l21.87,191s19.87,173.61,23.84,208.27A7.23,7.23,0,0,0,1129.23,1112.74Z"/><path class="cls-1" d="M1074.65,505a7.5,7.5,0,0,0,.34-2c1.09-35.6,6.5-213.87,6.5-213.87s5-163.5,6-196.15a7.74,7.74,0,0,0-.21-2,7.37,7.37,0,0,0-.34,2c-1,32.64-6,196.14-6,196.14s-5.42,178.28-6.5,213.87A7.82,7.82,0,0,0,1074.65,505Z"/><path class="cls-1" d="M1055.78,1126.19a7.5,7.5,0,0,0,.34-2c1.08-35.6,6.5-213.88,6.5-213.88s5-163.49,6-196.14a7.33,7.33,0,0,0-.22-2,7.36,7.36,0,0,0-.34,2c-1,32.65-6,196.15-6,196.15l-6.49,213.87A7.46,7.46,0,0,0,1055.78,1126.19Z"/><path class="cls-1" d="M1122.49,515.61a7.54,7.54,0,0,0,1.23-1.66l105.34-192,96.6-176.11a7.48,7.48,0,0,0,.74-1.93,7.78,7.78,0,0,0-1.23,1.66l-96.6,176.11-105.34,192A7.13,7.13,0,0,0,1122.49,515.61Z"/><path class="cls-1" d="M816.62,1073.21a7.76,7.76,0,0,0,1.22-1.66c17.54-32,105.35-192,105.35-192l96.6-176.1a7.86,7.86,0,0,0,.74-1.93,7.78,7.78,0,0,0-1.23,1.66L922.7,879.25l-105.34,192A7.13,7.13,0,0,0,816.62,1073.21Z"/><path class="cls-1" d="M1153.89,507.7a7.32,7.32,0,0,0,1.51-1.41L1326,297.49l156.35-191.4a7.27,7.27,0,0,0,1.08-1.76,7.32,7.32,0,0,0-1.51,1.41l-156.35,191.4L1155,505.94A7.27,7.27,0,0,0,1153.89,507.7Z"/><path class="cls-1" d="M659.62,1112.77a7.94,7.94,0,0,0,1.51-1.42L831.7,902.55l156.35-191.4a7.27,7.27,0,0,0,1.08-1.76,7.32,7.32,0,0,0-1.51,1.41L831.27,902.2,660.7,1111A7.32,7.32,0,0,0,659.62,1112.77Z"/><path class="cls-1" d="M1130,501a7.59,7.59,0,0,0,1.22-1.67l121-222.58,110.94-204a7.48,7.48,0,0,0,.74-1.93,7.28,7.28,0,0,0-1.22,1.67l-111,204.05-121,222.58A7.43,7.43,0,0,0,1130,501Z"/><path class="cls-1" d="M779.11,1146.34a7.5,7.5,0,0,0,1.22-1.67l121-222.58L1012.29,718a7.4,7.4,0,0,0,.74-1.94,7.5,7.5,0,0,0-1.22,1.67L900.86,921.82S800,1107.36,779.84,1144.4A7.36,7.36,0,0,0,779.11,1146.34Z"/><path class="cls-1" d="M1131.72,526.14a7.85,7.85,0,0,0,1.43-1.49l124.36-170.22,114.06-156.1a7.81,7.81,0,0,0,1-1.82,7.32,7.32,0,0,0-1.44,1.49l-114,156.11L1132.7,524.32A7.56,7.56,0,0,0,1131.72,526.14Z"/><path class="cls-1" d="M770.46,1020.59a7.59,7.59,0,0,0,1.44-1.49c20.69-28.33,124.36-170.22,124.36-170.22s95.07-130.13,114.06-156.11a7.93,7.93,0,0,0,1-1.82,7.62,7.62,0,0,0-1.43,1.5L895.81,848.55,771.45,1018.77A7.61,7.61,0,0,0,770.46,1020.59Z"/><path class="cls-1" d="M1141.2,540.79a7.81,7.81,0,0,0,1.66-1.23l143.85-139.88,132-128.3a7.71,7.71,0,0,0,1.27-1.62,7.26,7.26,0,0,0-1.66,1.23l-132,128.3L1142.47,539.16A7.37,7.37,0,0,0,1141.2,540.79Z"/><path class="cls-1" d="M723.08,947.34a7.56,7.56,0,0,0,1.66-1.23L868.6,806.23l131.95-128.3a7.15,7.15,0,0,0,1.27-1.63,7.56,7.56,0,0,0-1.66,1.23L868.21,805.83,724.35,945.71A7.15,7.15,0,0,0,723.08,947.34Z"/><path class="cls-1" d="M1117.22,510a7.42,7.42,0,0,0,1.11-1.74c15.73-33.88,94.48-203.6,94.48-203.6L1299.44,118a7.45,7.45,0,0,0,.61-2,7.42,7.42,0,0,0-1.11,1.74l-86.64,186.7s-78.75,169.71-94.47,203.6A7.28,7.28,0,0,0,1117.22,510Z"/><path class="cls-1" d="M843,1101.06a7.42,7.42,0,0,0,1.11-1.74c15.72-33.89,94.48-203.6,94.48-203.6L1025.19,709a7.84,7.84,0,0,0,.61-2,7.42,7.42,0,0,0-1.11,1.74l-86.64,186.7s-78.75,169.71-94.47,203.6A7.28,7.28,0,0,0,843,1101.06Z"/><path class="cls-1" d="M1148.86,514.4a7.62,7.62,0,0,0,1.52-1.41l160.06-194.82,146.75-178.6a7.6,7.6,0,0,0,1.08-1.76,7.32,7.32,0,0,0-1.51,1.41C1432.33,168.94,1310,317.82,1310,317.82L1150,512.64A7.66,7.66,0,0,0,1148.86,514.4Z"/><path class="cls-1" d="M684.75,1079.28a7.26,7.26,0,0,0,1.51-1.4L846.33,883.06,993.07,704.45a7.45,7.45,0,0,0,1.09-1.76,7.62,7.62,0,0,0-1.52,1.41L845.9,882.7,685.83,1077.52A7.82,7.82,0,0,0,684.75,1079.28Z"/><path class="cls-1" d="M1160.5,518a7.8,7.8,0,0,0,1.64-1.27L1346.36,329.4l168.88-171.76a7.27,7.27,0,0,0,1.24-1.65,7.38,7.38,0,0,0-1.63,1.26L1346,329,1161.74,516.38A7.71,7.71,0,0,0,1160.5,518Z"/><path class="cls-1" d="M626.54,1061.11a8,8,0,0,0,1.63-1.27L812.4,872.47,981.28,700.71a7.52,7.52,0,0,0,1.23-1.65,7.62,7.62,0,0,0-1.63,1.26L812,872.08,627.78,1059.45A7.1,7.1,0,0,0,626.54,1061.11Z"/><path class="cls-1" d="M1184.22,499.53a7.2,7.2,0,0,0,1.66-1.22L1419.6,272.25,1633.76,65.1a7.45,7.45,0,0,0,1.28-1.62,7.56,7.56,0,0,0-1.66,1.23L1419.21,271.85,1185.5,497.91A7.39,7.39,0,0,0,1184.22,499.53Z"/><path class="cls-1" d="M508,1153.61a7.42,7.42,0,0,0,1.66-1.22L743.36,926.33,957.52,719.18a7.45,7.45,0,0,0,1.28-1.62,7.84,7.84,0,0,0-1.66,1.22L743,925.93,509.25,1152A7.64,7.64,0,0,0,508,1153.61Z"/><path class="cls-1" d="M1174.75,512a7.12,7.12,0,0,0,1.68-1.19l213.91-200,196.05-183.28a7.81,7.81,0,0,0,1.31-1.6,7.37,7.37,0,0,0-1.69,1.19L1390,310.45s-178.3,166.7-213.91,200A7.75,7.75,0,0,0,1174.75,512Z"/><path class="cls-1" d="M555.32,1091.12a7.75,7.75,0,0,0,1.69-1.2l213.91-200S934.34,737.17,967,706.66a7.31,7.31,0,0,0,1.31-1.6,7.48,7.48,0,0,0-1.68,1.2L770.54,889.54l-213.91,200A7.31,7.31,0,0,0,555.32,1091.12Z"/><path class="cls-1" d="M1156.79,539.25a7.55,7.55,0,0,0,1.76-1.07l176.28-143.25,161.65-131.35a7.32,7.32,0,0,0,1.41-1.51,8,8,0,0,0-1.76,1.08L1334.48,394.5,1158.2,537.75A7.55,7.55,0,0,0,1156.79,539.25Z"/><path class="cls-1" d="M645.13,955a7.27,7.27,0,0,0,1.76-1.08L823.17,810.7,984.82,679.35a7.32,7.32,0,0,0,1.41-1.51,7.27,7.27,0,0,0-1.76,1.08L822.82,810.27,646.54,953.51A7.32,7.32,0,0,0,645.13,955Z"/><path class="cls-1" d="M1179.19,495.59a7.52,7.52,0,0,0,1.62-1.29L1404.1,260.07,1608.72,45.43a7.54,7.54,0,0,0,1.21-1.68,7.83,7.83,0,0,0-1.62,1.3L1403.7,259.68,1180.41,493.91A7.6,7.6,0,0,0,1179.19,495.59Z"/><path class="cls-1" d="M533.09,1173.34a7.47,7.47,0,0,0,1.61-1.29L758,937.82,962.61,723.18a7.79,7.79,0,0,0,1.22-1.67,7.22,7.22,0,0,0-1.62,1.29L757.6,937.43,534.3,1171.67A7.49,7.49,0,0,0,533.09,1173.34Z"/><path class="cls-1" d="M1212.86,509.32a7.88,7.88,0,0,0,1.84-.95L1508,302.45,1776.77,113.8a7.62,7.62,0,0,0,1.51-1.41,8,8,0,0,0-1.83,1L1507.71,302,1214.38,507.91A8,8,0,0,0,1212.86,509.32Z"/><path class="cls-1" d="M364.73,1104.7a7.18,7.18,0,0,0,1.84-1L659.89,897.84,928.64,709.18a7.59,7.59,0,0,0,1.51-1.4,7.29,7.29,0,0,0-1.83,1L659.57,897.39,366.25,1103.3A7.39,7.39,0,0,0,364.73,1104.7Z"/><path class="cls-1" d="M1183.34,518.73a7.21,7.21,0,0,0,1.77-1.06l231.74-186.12L1629.24,161a7.1,7.1,0,0,0,1.42-1.5,7.6,7.6,0,0,0-1.77,1.07L1416.5,331.12,1184.76,517.24A7.31,7.31,0,0,0,1183.34,518.73Z"/><path class="cls-1" d="M512.36,1057.61a7.81,7.81,0,0,0,1.77-1.07L745.87,870.43,958.26,699.86a7.92,7.92,0,0,0,1.42-1.5,7.6,7.6,0,0,0-1.77,1.07L745.52,870,513.78,1056.11A7.61,7.61,0,0,0,512.36,1057.61Z"/><path class="cls-1" d="M1181,546.68a7.51,7.51,0,0,0,1.92-.76l226.59-128,207.72-117.38a7.76,7.76,0,0,0,1.64-1.25,7.45,7.45,0,0,0-1.91.76L1409.22,417.39l-226.6,128.05A7.66,7.66,0,0,0,1181,546.68Z"/><path class="cls-1" d="M524.16,917.86a7.41,7.41,0,0,0,1.92-.77L752.68,789,960.39,671.66a7.52,7.52,0,0,0,1.65-1.25,7.41,7.41,0,0,0-1.92.77L752.4,788.56,525.81,916.61A7.44,7.44,0,0,0,524.16,917.86Z"/><path class="cls-1" d="M1208.2,523.1a7.62,7.62,0,0,0,1.89-.85L1493.61,345,1753.4,182.63a7.59,7.59,0,0,0,1.59-1.32,7.62,7.62,0,0,0-1.89.85L1493.31,344.55,1209.79,521.78A7.3,7.3,0,0,0,1208.2,523.1Z"/><path class="cls-1" d="M388,1035.79a7.67,7.67,0,0,0,1.89-.86L673.44,857.71,933.22,695.32a7.62,7.62,0,0,0,1.59-1.33,7.62,7.62,0,0,0-1.88.86L673.14,857.24,389.62,1034.46A7.62,7.62,0,0,0,388,1035.79Z"/><path class="cls-1" d="M1201.6,541.45a7.42,7.42,0,0,0,2-.7l269.64-139.07,247.1-127.45A7.34,7.34,0,0,0,1722,273a7.82,7.82,0,0,0-1.94.69L1472.93,401.19,1203.3,540.26A7.64,7.64,0,0,0,1201.6,541.45Z"/><path class="cls-1" d="M421,944.05a7.37,7.37,0,0,0,2-.69L692.62,804.29l247.1-127.46a7.32,7.32,0,0,0,1.69-1.18,7.44,7.44,0,0,0-1.94.69L692.36,803.79,422.73,942.87A7.62,7.62,0,0,0,421,944.05Z"/><path class="cls-1" d="M1209.33,554.91a7.18,7.18,0,0,0,2-.49L1497,443.25l261.81-101.89a7.6,7.6,0,0,0,1.81-1,7.5,7.5,0,0,0-2,.48L1496.82,442.73,1211.14,553.91A7.6,7.6,0,0,0,1209.33,554.91Z"/><path class="cls-1" d="M382.38,876.74a7.54,7.54,0,0,0,2-.49L670.07,765.07,931.88,663.19a7.54,7.54,0,0,0,1.8-1,7.73,7.73,0,0,0-2,.49L669.87,764.56,384.19,875.73A7.61,7.61,0,0,0,382.38,876.74Z"/><path class="cls-1" d="M1236,569.25a7.49,7.49,0,0,0,2-.2l341.32-81.53,312.73-74.69a7.39,7.39,0,0,0,1.92-.75,7.52,7.52,0,0,0-2,.21L1579.26,487l-341.32,81.53A7.76,7.76,0,0,0,1236,569.25Z"/><path class="cls-1" d="M249,805a7.52,7.52,0,0,0,2.06-.2l341.32-81.53,312.72-74.69a7.69,7.69,0,0,0,1.93-.75,7.15,7.15,0,0,0-2,.21L592.22,722.74,250.9,804.27A7.46,7.46,0,0,0,249,805Z"/><path class="cls-1" d="M1224.32,554.86a7.8,7.8,0,0,0,2-.41l317-111.35,290.42-102a7.93,7.93,0,0,0,1.84-.94,7.55,7.55,0,0,0-2,.41l-290.42,102L1226.16,553.92A7.74,7.74,0,0,0,1224.32,554.86Z"/><path class="cls-1" d="M307.46,877a7.58,7.58,0,0,0,2-.42l317-111.35,290.42-102a7.39,7.39,0,0,0,1.84-.94,7.58,7.58,0,0,0-2,.42l-290.42,102L309.3,876A7.06,7.06,0,0,0,307.46,877Z"/><path class="cls-1" d="M1213.72,559.31a7.8,7.8,0,0,0,2-.41l294.8-102.08,270.16-93.54a7.37,7.37,0,0,0,1.84-.93,7.4,7.4,0,0,0-2,.41L1510.36,456.3l-294.8,102.08A7.37,7.37,0,0,0,1213.72,559.31Z"/><path class="cls-1" d="M360.48,854.74a7.37,7.37,0,0,0,2-.4L657.3,752.26l270.16-93.54a7.37,7.37,0,0,0,1.84-.93,7.37,7.37,0,0,0-2,.4L657.12,751.74,362.32,853.81A7.37,7.37,0,0,0,360.48,854.74Z"/><path class="cls-1" d="M1266.7,581.9a7.54,7.54,0,0,0,2.07,0l405.38-55.35,371.34-50.69a7.61,7.61,0,0,0,2-.55,7.54,7.54,0,0,0-2.07,0L1674.07,526,1268.7,581.35A7.69,7.69,0,0,0,1266.7,581.9Z"/><path class="cls-1" d="M95.54,741.79a7.47,7.47,0,0,0,2.06,0L503,686.44l371.34-50.69a7.5,7.5,0,0,0,2-.55,7.47,7.47,0,0,0-2.06,0L502.91,685.89,97.53,741.24A7.5,7.5,0,0,0,95.54,741.79Z"/><path class="cls-1" d="M1214.09,559.57a7.4,7.4,0,0,0,2-.41l295.58-101.53,270.86-93.05a7.45,7.45,0,0,0,1.85-.93,7.51,7.51,0,0,0-2,.4L1511.51,457.1,1215.93,558.64A7.37,7.37,0,0,0,1214.09,559.57Z"/><path class="cls-1" d="M358.62,853.45a7.55,7.55,0,0,0,2-.41L656.22,751.5l270.86-93a7.43,7.43,0,0,0,1.85-.92,7.51,7.51,0,0,0-2,.4L656,751,360.46,852.52A7.37,7.37,0,0,0,358.62,853.45Z"/><path class="cls-1" d="M1274.92,601.36a7.46,7.46,0,0,0,2.06.21l422.53-14.92,387-13.67a7.49,7.49,0,0,0,2-.35,7.47,7.47,0,0,0-2.06-.2l-387,13.66L1277,601A7.9,7.9,0,0,0,1274.92,601.36Z"/><path class="cls-1" d="M54.43,644.46a7.86,7.86,0,0,0,2.06.21L479,629.75l387-13.67a7.35,7.35,0,0,0,2-.35,7.74,7.74,0,0,0-2.05-.21L479,629.19,56.47,644.11A7.9,7.9,0,0,0,54.43,644.46Z"/><path class="cls-1" d="M1233.33,597a7.2,7.2,0,0,0,2.06.13L1571.05,573l307.55-22a7.15,7.15,0,0,0,2-.42,7.2,7.2,0,0,0-2.06-.13l-307.55,22-335.65,24A7.3,7.3,0,0,0,1233.33,597Z"/><path class="cls-1" d="M262.4,666.53a8,8,0,0,0,2.06.13L600.11,642.6l307.55-22a7.67,7.67,0,0,0,2-.43,8.11,8.11,0,0,0-2.07-.13l-307.55,22L264.42,666.1A7.51,7.51,0,0,0,262.4,666.53Z"/><path class="cls-1" d="M1260.57,607.07a7.66,7.66,0,0,0,2,.26l392.54-3.06,359.6-2.81a7.55,7.55,0,0,0,2-.29,7.23,7.23,0,0,0-2-.26l-359.6,2.8-392.54,3.07A7.55,7.55,0,0,0,1260.57,607.07Z"/><path class="cls-1" d="M126.21,615.93a7.74,7.74,0,0,0,2.06.26l392.53-3.07,359.6-2.8a7.18,7.18,0,0,0,2.05-.3,7.66,7.66,0,0,0-2.05-.26l-359.6,2.81-392.54,3.06A7.29,7.29,0,0,0,126.21,615.93Z"/><path class="cls-1" d="M1231.25,587a7.54,7.54,0,0,0,2.07,0l331.32-44.8,303.58-41a7.69,7.69,0,0,0,2-.55,7.54,7.54,0,0,0-2.07,0L1564.56,541.6l-331.32,44.8A7.61,7.61,0,0,0,1231.25,587Z"/><path class="cls-1" d="M272.8,716.55a7.54,7.54,0,0,0,2.07,0l331.32-44.8,303.58-41a7.58,7.58,0,0,0,2-.55,7.54,7.54,0,0,0-2.07,0L606.11,671.2,274.79,716A7.61,7.61,0,0,0,272.8,716.55Z"/><path class="cls-1" d="M1285.81,607.18a7.66,7.66,0,0,0,2,.26l445.27-2.84L2141,602a7.63,7.63,0,0,0,2.05-.29,7.32,7.32,0,0,0-2.05-.27l-407.84,2.61-445.27,2.84A7.63,7.63,0,0,0,1285.81,607.18Z"/><path class="cls-1" d="M0,615.39a7.66,7.66,0,0,0,2.05.26l445.27-2.84,407.84-2.6a7.24,7.24,0,0,0,2.05-.3,7.72,7.72,0,0,0-2.05-.26l-407.84,2.6L2.05,615.1A7.57,7.57,0,0,0,0,615.39Z"/><path class="cls-1" d="M1236.67,578.17a7.36,7.36,0,0,0,2.07-.09l342.66-63,314-57.73a7.52,7.52,0,0,0,2-.65,7.71,7.71,0,0,0-2.06.1l-314,57.74-342.66,63A7.72,7.72,0,0,0,1236.67,578.17Z"/><path class="cls-1" d="M245.69,760.41a7.37,7.37,0,0,0,2.07-.1l342.66-63,314-57.74a7.72,7.72,0,0,0,2-.64,7.37,7.37,0,0,0-2.07.1l-314,57.73-342.66,63A7.72,7.72,0,0,0,245.69,760.41Z"/><path class="cls-1" d="M1262.67,577.46a7.66,7.66,0,0,0,2.07-.05l397-64.55,363.64-59.14a7.42,7.42,0,0,0,2-.6,7.66,7.66,0,0,0-2.07.05l-363.63,59.14-397,64.55A7.42,7.42,0,0,0,1262.67,577.46Z"/><path class="cls-1" d="M115.71,764a7.2,7.2,0,0,0,2.06-.05l397-64.55,363.64-59.13a7.93,7.93,0,0,0,2-.61,7.29,7.29,0,0,0-2.07.06L514.64,698.82,117.69,763.37A7.8,7.8,0,0,0,115.71,764Z"/></g></g></svg>